<?xml version="1.0" encoding="UTF-8" standalone="no"?>
<svg
   version="1.1"
   width="200"
   height="200"
   viewBox="-800 -100 200 200"
   id="svg2"
   sodipodi:docname="MapFlipIcon.svg"
   inkscape:version="1.3 (0e150ed6c4, 2023-07-21)"
   inkscape:export-filename="MapFlipIcon.png"
   inkscape:export-xdpi="491.51999"
   inkscape:export-ydpi="491.51999"
   xmlns:inkscape="http://www.inkscape.org/namespaces/inkscape"
   xmlns:sodipodi="http://sodipodi.sourceforge.net/DTD/sodipodi-0.dtd"
   xmlns="http://www.w3.org/2000/svg"
   xmlns:svg="http://www.w3.org/2000/svg">
  <defs
     id="defs2" />
  <sodipodi:namedview
     id="namedview2"
     pagecolor="#ffffff"
     bordercolor="#000000"
     borderopacity="0.25"
     inkscape:showpageshadow="2"
     inkscape:pageopacity="0.0"
     inkscape:pagecheckerboard="0"
     inkscape:deskcolor="#d1d1d1"
     inkscape:zoom="5.787669"
     inkscape:cx="59.350319"
     inkscape:cy="109.45685"
     inkscape:window-width="3840"
     inkscape:window-height="2071"
     inkscape:window-x="3191"
     inkscape:window-y="-9"
     inkscape:window-maximized="1"
     inkscape:current-layer="svg2" />
  <polygon
     points="-140,-70 -140,70 140,70 140,-70 "
     fill="none"
     stroke="#000000"
     stroke-width="12.5"
     stroke-linejoin="round"
     id="polygon1"
     transform="matrix(0.39479755,0,0,1.0322864,-724.04926,5.6424882)"
     style="stroke-width:0;stroke-dasharray:none" />
  <polygon
     points="125,6 45,-26 125,-58 "
     fill="#000000"
     stroke="none"
     id="polygon2"
     transform="matrix(0.76560684,0,0,1.3023669,-788.09041,14.367936)"
     style="fill:#ff00ff;fill-opacity:1" />
  <path
     d="m -693.57072,-36.846211 c 0,10 0,22 0,32 17.65253,0 61.78384,7.0000005 61.78384,31 0,21 -21.18302,31 -37.0703,37 30.89192,0 59.13596,-18 59.13596,-47.999999 0,-35.000001 -61.78384,-52.000001 -83.8495,-52.000001"
     fill="#000000"
     stroke="none"
     id="path2"
     style="stroke-width:0.939482;fill:#ff00ff;fill-opacity:1" />
</svg>
